<svg width="88" height="88" viewBox="0 0 88 88" fill="none" xmlns="http://www.w3.org/2000/svg">
<rect width="88" height="88" fill="#FFF89A"/>
<path d="M38.375 48.375V45.625H42.375V47H47.625V44.375H41C40.25 44.375 39.625 44.125 39.125 43.625C38.625 43.0417 38.375 42.375 38.375 41.625V37.625C38.375 36.9583 38.625 36.375 39.125 35.875C39.625 35.2917 40.25 35 41 35H49C49.75 35 50.375 35.2917 50.875 35.875C51.375 36.375 51.625 36.9583 51.625 37.625V40.375H47.625V39H42.375V41.625H49C49.75 41.625 50.375 41.9167 50.875 42.5C51.375 43 51.625 43.625 51.625 44.375V48.375C51.625 49.0417 51.375 49.6667 50.875 50.25C50.375 50.75 49.75 51 49 51H41C40.25 51 39.625 50.75 39.125 50.25C38.625 49.6667 38.375 49.0417 38.375 48.375ZM58.375 51H66.375C67.0417 51 67.625 50.75 68.125 50.25C68.7083 49.6667 69 49.0417 69 48.375V44.375C69 43.625 68.7083 43 68.125 42.5C67.625 41.9167 67.0417 41.625 66.375 41.625H59.625V39H65V40.375H69V37.625C69 36.9583 68.7083 36.375 68.125 35.875C67.625 35.2917 67.0417 35 66.375 35H58.375C57.625 35 56.9583 35.2917 56.375 35.875C55.875 36.375 55.625 36.9583 55.625 37.625V41.625C55.625 42.375 55.875 43.0417 56.375 43.625C56.9583 44.125 57.625 44.375 58.375 44.375H65V47H59.625V45.625H55.625V48.375C55.625 49.0417 55.875 49.6667 56.375 50.25C56.9583 50.75 57.625 51 58.375 51ZM34.375 37.625C34.375 36.9583 34.0833 36.375 33.5 35.875C33 35.2917 32.375 35 31.625 35H23.625C22.9583 35 22.3333 35.2917 21.75 35.875C21.25 36.375 21 36.9583 21 37.625V48.375C21 49.0417 21.25 49.6667 21.75 50.25C22.3333 50.75 22.9583 51 23.625 51H31.625C32.375 51 33 50.75 33.5 50.25C34.0833 49.6667 34.375 49.0417 34.375 48.375V45.625H30.375V47H25V39H30.375V40.375H34.375V37.625Z" fill="black"/>
</svg>
