<svg width="88" height="88" viewBox="0 0 88 88" fill="none" xmlns="http://www.w3.org/2000/svg">
<rect width="88" height="88" fill="#FFB2A6"/>
<path d="M23.375 35H27.375V51H23.375V44.375H18V51H14V35H18V40.375H23.375V35ZM60.625 35H48.625C47.9583 35 47.3333 35.2917 46.75 35.875C46.25 36.375 46 36.9583 46 37.625V51H50V39H52.625V48.375H56.625V39H59.375V51H63.375V37.625C63.375 36.9583 63.0833 36.375 62.5 35.875C62 35.2917 61.375 35 60.625 35ZM43.375 35H30V39H34.625V51H38.625V39H43.375V35ZM78 51V47H71.375V35H67.375V51H78Z" fill="black"/>
</svg>
