<svg width="88" height="88" viewBox="0 0 88 88" fill="none" xmlns="http://www.w3.org/2000/svg">
<rect width="88" height="88" fill="#FF8AAE"/>
<path d="M45 48.375V45.625H49V47H54.375V44.375H47.625C46.9583 44.375 46.3333 44.125 45.75 43.625C45.25 43.0417 45 42.375 45 41.625V37.625C45 36.9583 45.25 36.375 45.75 35.875C46.3333 35.2917 46.9583 35 47.625 35H55.625C56.375 35 57 35.2917 57.5 35.875C58.0833 36.375 58.375 36.9583 58.375 37.625V40.375H54.375V39H49V41.625H55.625C56.375 41.625 57 41.9167 57.5 42.5C58.0833 43 58.375 43.625 58.375 44.375V48.375C58.375 49.0417 58.0833 49.6667 57.5 50.25C57 50.75 56.375 51 55.625 51H47.625C46.9583 51 46.3333 50.75 45.75 50.25C45.25 49.6667 45 49.0417 45 48.375ZM37 35V47H33V44.375H29V47C29 48.0833 29.375 49.0417 30.125 49.875C30.9583 50.625 31.9167 51 33 51H37C38.0833 51 39 50.625 39.75 49.875C40.5833 49.0417 41 48.0833 41 47V35C41 35 40.5833 35 39.75 35C39 35 38.0833 35 37 35Z" fill="black"/>
</svg>
