<svg width="74" height="73" viewBox="0 0 74 73" fill="none" xmlns="http://www.w3.org/2000/svg">
<path d="M64.9424 36.5147H74C74 16.3585 57.4242 0 37.0002 0C16.576 0 0 16.3585 0 36.5147H9.05761C9.05761 41.4513 5.00242 45.4535 0 45.4535V50.2733C7.69602 50.2733 13.9712 44.0805 13.9712 36.4853H20.6016C20.6016 47.7026 11.3664 56.8167 0 56.8167V61.6368C14.06 61.6368 25.4856 50.3611 25.4856 36.4853H32.1161C32.1161 53.9541 17.7008 68.1799 0 68.1799V73C20.3944 73 37.0002 56.6123 37.0002 36.4853C37.0002 56.6123 53.6057 73 74 73V68.1799C56.2993 68.1799 41.884 53.9541 41.884 36.4853H48.5145C48.5145 50.3611 59.9401 61.6368 74 61.6368V56.8167C62.6336 56.8167 53.3986 47.7026 53.3986 36.4853H60.0287C60.0287 44.0805 66.3042 50.2733 74 50.2733V45.4535C69.0272 45.4535 64.9424 41.4223 64.9424 36.5147Z" fill="#F6F6F6"/>
</svg>
