<svg width="54" height="51" viewBox="0 0 54 51" fill="none" xmlns="http://www.w3.org/2000/svg">
<path d="M41.25 31.625C41.4167 31.7917 41.75 32.1667 42.25 32.75C42.8333 33.25 43.2083 33.5833 43.375 33.75C43.5417 33.9167 43.875 34.2917 44.375 34.875C44.9583 35.4583 45.2917 35.875 45.375 36.125C45.5417 36.2917 45.875 36.6667 46.375 37.25C46.875 37.8333 47.125 38.25 47.125 38.5C47.2083 38.75 47.4167 39.2083 47.75 39.875C48.1667 40.5417 48.2917 41.0417 48.125 41.375C48.0417 41.625 48.0833 42.125 48.25 42.875C48.5 43.5417 48.5 44.0417 48.25 44.375C47.3333 47.875 45.25 49.9583 42 50.625C41.4167 50.7083 39.375 50.5417 35.875 50.125C32.4583 49.7083 29.5833 49.5 27.25 49.5H26.75C24.4167 49.5 21.5 49.7083 18 50.125C14.5833 50.5417 12.5833 50.7083 12 50.625C8.75 49.9583 6.66667 47.875 5.75 44.375C5.5 42.7083 5.79167 41 6.625 39.25C7.45833 37.5 8.20833 36.25 8.875 35.5C9.625 34.75 10.9167 33.4583 12.75 31.625C13.5833 30.7083 14.6667 29.4167 16 27.75C17.4167 26.0833 18.5417 24.7917 19.375 23.875C20.875 22.0417 22.4167 20.875 24 20.375C24.3333 20.2083 24.625 20.125 24.875 20.125C25.375 20.0417 26.0833 20 27 20C28 20 28.7083 20.0417 29.125 20.125C29.375 20.125 29.6667 20.2083 30 20.375C31.5833 20.875 33.125 22.0417 34.625 23.875C35.375 24.7917 36.4583 26.0833 37.875 27.75C39.2917 29.4167 40.4167 30.7083 41.25 31.625ZM42.25 22.125C41 20.7917 40.375 19.2083 40.375 17.375C40.375 15.5417 41 13.9583 42.25 12.625C43.5833 11.2917 45.1667 10.625 47 10.625C48.8333 10.625 50.375 11.2917 51.625 12.625C52.9583 13.9583 53.625 15.5417 53.625 17.375C53.625 19.2083 52.9583 20.7917 51.625 22.125C50.375 23.375 48.8333 24 47 24C45.1667 24 43.5833 23.375 42.25 22.125ZM30.25 11.375C29 10.0417 28.375 8.45833 28.375 6.625C28.375 4.79167 29 3.25 30.25 2C31.5833 0.666667 33.1667 0 35 0C36.8333 0 38.375 0.666667 39.625 2C40.9583 3.25 41.625 4.79167 41.625 6.625C41.625 8.45833 40.9583 10.0417 39.625 11.375C38.375 12.7083 36.8333 13.375 35 13.375C33.1667 13.375 31.5833 12.7083 30.25 11.375ZM14.25 11.375C13 10.0417 12.375 8.45833 12.375 6.625C12.375 4.79167 13 3.25 14.25 2C15.5833 0.666667 17.1667 0 19 0C20.8333 0 22.375 0.666667 23.625 2C24.9583 3.25 25.625 4.79167 25.625 6.625C25.625 8.45833 24.9583 10.0417 23.625 11.375C22.375 12.7083 20.8333 13.375 19 13.375C17.1667 13.375 15.5833 12.7083 14.25 11.375ZM2.25 22.125C1 20.7917 0.375 19.2083 0.375 17.375C0.375 15.5417 1 13.9583 2.25 12.625C3.58333 11.2917 5.16667 10.625 7 10.625C8.83333 10.625 10.375 11.2917 11.625 12.625C12.9583 13.9583 13.625 15.5417 13.625 17.375C13.625 19.2083 12.9583 20.7917 11.625 22.125C10.375 23.375 8.83333 24 7 24C5.16667 24 3.58333 23.375 2.25 22.125Z" fill="#F6F6F6"/>
</svg>
