<svg width="88" height="88" viewBox="0 0 88 88" fill="none" xmlns="http://www.w3.org/2000/svg">
<rect width="88" height="88" fill="#9ADCFF"/>
<path d="M47.625 35H51.625V51H47.625V44.375H42.375V51H38.375V35H42.375V40.375H47.625V35ZM34.375 39V41.625C34.375 42.7083 33.9583 43.6667 33.125 44.5C32.2917 45.25 31.375 45.625 30.375 45.625H25V51H21V35H30.375C31.375 35 32.2917 35.4167 33.125 36.25C33.9583 37 34.375 37.9167 34.375 39ZM30.375 39H25V41.625H30.375V39ZM70.375 39V41.625C70.375 42.7083 69.9583 43.6667 69.125 44.5C68.2917 45.25 67.375 45.625 66.375 45.625H61V51H57V35H66.375C67.375 35 68.2917 35.4167 69.125 36.25C69.9583 37 70.375 37.9167 70.375 39ZM66.375 39H61V41.625H66.375V39Z" fill="black"/>
</svg>
